<?xml version="1.0" encoding="utf-8"?>
<svg viewBox="26.096 4.263 20.432 20.557" xmlns="http://www.w3.org/2000/svg" xmlns:xlink="http://www.w3.org/1999/xlink">
  <defs>
    <radialGradient id="linearGradient4363-7-1" cx="-14.843177" cy="1034.9207" r="8.0063524" gradientTransform="matrix(1,0,0,0.49292897,0.12127985,524.5964)" gradientUnits="userSpaceOnUse" xlink:href="#linearGradient4363-7"/>
    <linearGradient id="linearGradient4363-7">
      <stop style="stop-color:#f5f5ef;stop-opacity:1;" offset="0" id="stop4365-9"/>
      <stop style="stop-color:#dadad4;stop-opacity:0;" offset="1" id="stop4367-8"/>
    </linearGradient>
    <filter id="filter5355" x="-0.18225814" width="1.3645163" y="-0.37276217" height="1.7455244">
      <feGaussianBlur stdDeviation="1.2065266" id="feGaussianBlur5357"/>
    </filter>
    <linearGradient id="linearGradient924" x1="2.9541297" y1="463.78357" x2="914.80005" y2="463.78357" gradientUnits="userSpaceOnUse" xlink:href="#linearGradient904"/>
    <linearGradient id="linearGradient904">
      <stop style="stop-color:#36d1dc;stop-opacity:1" offset="0" id="stop900"/>
      <stop style="stop-color:#5b86e5;stop-opacity:0.99607843" offset="1" id="stop902"/>
    </linearGradient>
    <linearGradient id="linearGradient906" x1="41.727223" y1="463.78357" x2="876.02694" y2="463.78357" gradientUnits="userSpaceOnUse" xlink:href="#linearGradient904"/>
    <linearGradient id="linearGradient914" x1="5.937387" y1="460.5625" x2="917.78784" y2="460.5625" gradientUnits="userSpaceOnUse" xlink:href="#linearGradient904"/>
    <linearGradient id="linearGradient916" x1="44.710686" y1="460.5625" x2="879.01453" y2="460.5625" gradientUnits="userSpaceOnUse" xlink:href="#linearGradient904"/>
    <linearGradient id="linearGradient932" x1="5.9373512" y1="466.21042" x2="917.7879" y2="466.21042" gradientUnits="userSpaceOnUse" xlink:href="#linearGradient904"/>
    <linearGradient id="linearGradient934" x1="44.710667" y1="466.21042" x2="879.01459" y2="466.21042" gradientUnits="userSpaceOnUse" xlink:href="#linearGradient904"/>
  </defs>
  <g id="g-1" transform="matrix(1, 0, 0, 1, 0.6511190533638, -1093.4249267578125)">
    <g id="g-2" transform="translate(86.4,-3.2)"/>
    <path style="opacity: 0; fill-opacity: 1; stroke: rgb(0, 0, 0); stroke-width: 0.1; stroke-linecap: butt; stroke-linejoin: miter; stroke-miterlimit: 4; stroke-dasharray: none; stroke-opacity: 1; filter: url(#filter5355); fill: url(#linearGradient4363-7-1);" d="m -22.665748,1038.6229 h 15.8877044 c -0.3742772,-10.7481 -15.8936154,-9.9594 -15.8877044,0 z" id="path-1" transform="matrix(0.99862602,0,0,0.91748438,122.43674,158.27533)"/>
    <g id="g-3" transform="matrix(0.02211836,0,0,-0.02211825,2.8148384,1117.8901)">
      <path d="m 458.87898,7.8583349 c 251.80054,0 455.92106,204.1245951 455.92106,455.9294151 0,251.79515 -204.12052,455.92105 -455.92106,455.92105 C 207.07954,919.7088 2.9541296,715.5829 2.9541296,463.78775 2.9541296,211.98293 207.07954,7.8583349 458.87898,7.8583349" style="fill:url(#linearGradient924);fill-opacity:1;fill-rule:evenodd;stroke:none;stroke-width:1.06666672;enable-background:new" id="path14-3"/>
      <path d="m 458.87707,46.637804 c 230.38404,0 417.14987,186.762966 417.14987,417.150176 0,230.37865 -186.76583,417.14135 -417.14987,417.14135 -230.38291,0 -417.149847,-186.7627 -417.149847,-417.14135 0,-230.38721 186.766937,-417.150176 417.149847,-417.150176" style="fill:url(#linearGradient906);fill-opacity:1;fill-rule:evenodd;stroke:none;stroke-width:1.06666672;enable-background:new" id="path16-6"/>
    </g>
    <g id="g-4" transform="matrix(0.02211825,0,0,-0.02211826,25.480173,1117.8188)">
      <path d="m 461.86451,4.6374457 c 251.80184,0 455.92334,204.1245143 455.92334,455.9292243 0,251.79508 -204.1215,455.92086 -455.92334,455.92086 -251.8007,0 -455.927123,-204.12578 -455.927123,-455.92086 0,-251.80471 204.126423,-455.9292243 455.927123,-455.9292243" style="fill:url(#linearGradient914);fill-opacity:1;fill-rule:evenodd;stroke:none;stroke-width:1.06666911;enable-background:new" id="path14-3-7"/>
      <path d="m 461.86261,43.416911 c 230.38514,0 417.15194,186.762879 417.15194,417.149989 0,230.37856 -186.7668,417.14116 -417.15194,417.14116 -230.38407,0 -417.151923,-186.7626 -417.151923,-417.14116 0,-230.38711 186.767853,-417.149989 417.151923,-417.149989" style="fill:url(#linearGradient916);fill-opacity:1;fill-rule:evenodd;stroke:none;stroke-width:1.06666911;enable-background:new" id="path16-5"/>
      <ellipse cy="-460.5625" cx="461.86261" id="path4179" style="opacity:1;fill:#324a7d;fill-opacity:1;stroke:none;stroke-width:96.4512558;stroke-miterlimit:4;stroke-dasharray:none;stroke-opacity:1;enable-background:new" rx="144.67691" ry="144.67685" transform="scale(1,-1)"/>
    </g>
    <g id="g-5" transform="matrix(0.02211825,0,0,-0.02211836,47.96021,1117.9438)">
      <path id="path14-2" style="fill:url(#linearGradient932);fill-opacity:1;fill-rule:evenodd;stroke:none;stroke-width:1.06666672" d="m 461.86449,10.287447 c 251.80179,0 455.92339,204.123583 455.92339,455.927123 0,251.79395 -204.1216,455.91881 -455.92339,455.91881 -251.80072,0 -455.927139,-204.12486 -455.927139,-455.91881 0,-251.80354 204.126419,-455.927123 455.927139,-455.927123"/>
      <path id="path16-9" style="fill:url(#linearGradient934);fill-opacity:1;fill-rule:evenodd;stroke:none;stroke-width:1.06666672" d="m 461.86262,49.066727 c 230.38516,0 417.15195,186.762053 417.15195,417.148103 0,230.37753 -186.76679,417.13927 -417.15195,417.13927 -230.38409,0 -417.151953,-186.76174 -417.151953,-417.13927 0,-230.38605 186.767863,-417.148104 417.151953,-417.148104"/>
      <ellipse transform="scale(1,-1)" ry="144.67619" rx="144.67691" style="opacity:1;fill:#324a7d;fill-opacity:1;stroke:none;stroke-width:96.45103455;stroke-miterlimit:4;stroke-dasharray:none;stroke-opacity:1;enable-background:new" id="path4179-6" cx="461.86261" cy="-466.21042"/>
    </g>
    <g id="g-6" transform="matrix(0.02211826,0,0,-0.02211835,73.959447,1117.8241)">
      <path id="path-2" style="fill:#5b5c63;fill-opacity:1;fill-rule:evenodd;stroke:none;stroke-width:1.06669128" d="m 406.44683,-0.25162337 c 251.80614,0 455.9357,204.12594337 455.9357,455.93560337 0,251.8022 -204.12956,455.9317 -455.9357,455.9317 -251.80541,0 -455.935322,-204.1295 -455.935322,-455.9317 0,-251.80966 204.129912,-455.93560337 455.935322,-455.93560337"/>
      <path id="path-3" style="fill:#5b5c63;fill-opacity:1;fill-rule:evenodd;stroke:none;stroke-width:1.06669128" d="m 406.44683,38.524317 c 230.38911,0 417.1594,186.767123 417.1594,417.159663 0,230.38395 -186.77029,417.1554 -417.1594,417.1554 -230.38837,0 -417.159362,-186.77145 -417.159362,-417.1554 0,-230.39254 186.770992,-417.159663 417.159362,-417.159663"/>
    </g>
    <g id="g-7" transform="matrix(0.02211826,0,0,-0.02211835,96.716341,1117.8241)">
      <path id="path4199-3" style="fill:#5b5c63;fill-opacity:1;fill-rule:evenodd;stroke:none;stroke-width:1.06669116" d="m 358.16954,-0.25162337 c 251.8062,0 455.9357,204.12594337 455.9357,455.93559337 0,251.8022 -204.1295,455.93172 -455.9357,455.93172 -251.8054,0 -455.935328,-204.12952 -455.935328,-455.93172 0,-251.80965 204.129928,-455.93559337 455.935328,-455.93559337"/>
      <path id="path-4" style="fill:#5b5c63;fill-opacity:1;fill-rule:evenodd;stroke:none;stroke-width:1.06669116" d="m 358.16954,38.524327 c 230.3891,0 417.1594,186.767093 417.1594,417.159643 0,230.38394 -186.7703,417.15542 -417.1594,417.15542 -230.3884,0 -417.159428,-186.77148 -417.159428,-417.15542 0,-230.39255 186.771028,-417.159643 417.159428,-417.159643"/>
    </g>
  </g>
</svg>