<?xml version="1.0" encoding="utf-8"?>
<svg viewBox="3.935 4.881 20.309 20.371" xmlns="http://www.w3.org/2000/svg" xmlns:xlink="http://www.w3.org/1999/xlink">
  <defs>
    <radialGradient id="radialGradient5329" cx="-14.843177" cy="1034.9207" r="8.0063524" gradientTransform="matrix(1,0,0,0.49292897,0.12127985,524.5964)" gradientUnits="userSpaceOnUse" xlink:href="#linearGradient4363-7"/>
    <linearGradient id="linearGradient4363-7">
      <stop style="stop-color:#f5f5ef;stop-opacity:1;" offset="0" id="stop4365-9"/>
      <stop style="stop-color:#dadad4;stop-opacity:0;" offset="1" id="stop4367-8"/>
    </linearGradient>
    <filter id="filter5355" x="-0.18225814" width="1.3645163" y="-0.37276217" height="1.7455244">
      <feGaussianBlur stdDeviation="1.2065266" id="feGaussianBlur5357"/>
    </filter>
    <linearGradient gradientTransform="matrix(0.79520517,0,0,0.79520962,62.890355,41.429252)" id="linearGradient849" x1="5.6857157" y1="515.151" x2="865.45459" y2="540.10333" gradientUnits="userSpaceOnUse" xlink:href="#linearGradient847"/>
    <linearGradient id="linearGradient847">
      <stop style="stop-color:#fc2;stop-opacity:1" offset="0" id="stop843"/>
      <stop style="stop-color:#ff4b2b;stop-opacity:1" offset="1" id="stop845"/>
    </linearGradient>
    <linearGradient gradientTransform="matrix(0.79520883,0,0,-0.7952174,18.528318,868.92583)" id="linearGradient849-0" x1="5.6857157" y1="515.151" x2="865.45459" y2="540.10333" gradientUnits="userSpaceOnUse" xlink:href="#linearGradient847"/>
  </defs>
  <g id="layer1" transform="matrix(1, 0, 0, 1, 0, -1092.6529541015625)">
    <g id="4" transform="translate(86.4,-3.2)"/>
    <path style="opacity:0;fill:url(#radialGradient5329);fill-opacity:1;stroke:#000000;stroke-width:0.1;stroke-linecap:butt;stroke-linejoin:miter;stroke-miterlimit:4;stroke-dasharray:none;stroke-opacity:1;filter:url(#filter5355)" d="m -22.665748,1038.6229 h 15.8877044 c -0.3742772,-10.7481 -15.8936154,-9.9594 -15.8877044,0 z" id="path3863" transform="matrix(0.99862602,0,0,0.91748438,122.43674,158.27533)"/>
    <g id="active-center" transform="matrix(0.02211836,0,0,-0.02211825,2.8148384,1117.8901)">
      <path id="path4094" style="fill:url(#linearGradient849);fill-opacity:1;fill-rule:evenodd;stroke:#ff4b2b;stroke-width:32.23240662;stroke-miterlimit:4;stroke-dasharray:none;stroke-opacity:1" d="m 507.23281,11.262772 c 242.90015,0 439.81335,196.914398 439.81335,439.819128 0,242.90572 -196.9132,439.81987 -439.81335,439.81987 -242.90751,0 -439.821125,-196.91415 -439.821125,-439.81987 0,-242.90473 196.913615,-439.819128 439.821125,-439.819128"/>
    </g>
    <g id="hover-center" transform="matrix(0.02211825,0,0,-0.02211826,25.480173,1117.8188)">
      <path id="path4094-6" style="fill:url(#linearGradient849-0);fill-opacity:1;fill-rule:evenodd;stroke:#ff4b2b;stroke-width:32.23263931;stroke-miterlimit:4;stroke-dasharray:none;stroke-opacity:1" d="m 462.87291,899.08853 c 242.90132,0 439.81547,-196.9119 439.81547,-439.8192 0,-242.9074 -196.91415,-439.819207 -439.81547,-439.819207 -242.90875,0 -439.823309,196.911807 -439.823309,439.819207 0,242.9073 196.914559,439.8192 439.823309,439.8192"/>
      <path d="m 246.82133,299.19147 376.41174,376.4128 c 14.56746,14.5664 38.4,14.5664 52.97493,0 l 0.69653,-0.704 c 14.57067,-14.5664 14.57067,-38.4 0.004,-52.97067 L 300.496,245.52107 c -14.57067,-14.57067 -38.40427,-14.57067 -52.97067,0 l -0.704,0.69546 c -14.56746,14.57067 -14.56746,38.40854 0,52.97494" style="fill:#9f1d2b;fill-opacity:1;fill-rule:evenodd;stroke:none;stroke-width:1.06666672" id="path18"/>
      <path d="m 300.496,675.60427 376.40853,-376.4128 c 14.5664,-14.5664 14.5664,-38.40427 0,-52.97067 l -0.7008,-0.69973 c -14.57066,-14.57067 -38.4032,-14.57067 -52.97066,0 L 246.82133,621.9296 c -14.57173,14.57067 -14.57173,38.40427 0,52.97493 l 0.69974,0.69974 c 14.57066,14.57066 38.40426,14.57066 52.97493,0" style="fill:#9f1d2b;fill-opacity:1;fill-rule:evenodd;stroke:none;stroke-width:1.06666672" id="path20"/>
    </g>
    <g id="pressed-center" transform="matrix(0.02211825,0,0,-0.02211836,47.96021,1117.9438)">
      <path d="m 461.86667,10.287499 c 251.79626,0 455.92106,204.125301 455.92106,455.920501 0,251.80053 -204.1248,455.92533 -455.92106,455.92533 -251.80374,0 -455.929166,-204.1248 -455.929166,-455.92533 0,-251.7952 204.125426,-455.920501 455.929166,-455.920501" style="fill:#d52735;fill-opacity:1;fill-rule:evenodd;stroke:none;stroke-width:1.06666672" id="path14-4"/>
      <path d="m 461.86667,49.062507 c 230.37866,0 417.14133,186.766823 417.14133,417.145493 0,230.38827 -186.76267,417.14987 -417.14133,417.14987 -230.3872,0 -417.149977,-186.7616 -417.149977,-417.14987 0,-230.37867 186.762777,-417.145493 417.149977,-417.145493" style="fill:#d52735;fill-opacity:1;fill-rule:evenodd;stroke:none;stroke-width:1.06666672" id="path16-2"/>
      <path d="m 246.82133,304.8416 376.41174,376.40853 c 14.56746,14.57067 38.4,14.57067 52.97493,0 l 0.69653,-0.69973 c 14.57067,-14.56747 14.57067,-38.40427 0.004,-52.97173 L 300.496,251.1712 c -14.57067,-14.57067 -38.40427,-14.57067 -52.97067,0 l -0.704,0.69547 c -14.56746,14.57066 -14.56746,38.40426 0,52.97493" style="fill:#9f1d2b;fill-opacity:1;fill-rule:evenodd;stroke:none;stroke-width:1.06666672" id="path18-6"/>
      <path d="M 300.496,681.25013 676.90453,304.8416 c 14.5664,-14.5664 14.5664,-38.40427 0,-52.97493 l -0.7008,-0.69547 c -14.57066,-14.57067 -38.4032,-14.57067 -52.97066,0 L 246.82133,627.57867 c -14.57173,14.56746 -14.57173,38.40426 0,52.97173 l 0.69974,0.69973 c 14.57066,14.57067 38.40426,14.57067 52.97493,0" style="fill:#9f1d2b;fill-opacity:1;fill-rule:evenodd;stroke:none;stroke-width:1.06666672" id="path20-2"/>
    </g>
    <g id="inactive-center" transform="matrix(0.02211826,0,0,-0.02211835,75.008737,1117.8241)">
      <path id="path4199" style="fill:#5b5c63;fill-opacity:1;fill-rule:evenodd;stroke:none;stroke-width:1.06669128" d="m 289.1262,8.2787733 c 251.80616,0 455.93572,204.1259967 455.93572,455.9355867 0,251.8022 -204.12956,455.93175 -455.93572,455.93175 -251.805422,0 -455.93529,-204.12955 -455.93529,-455.93175 0,-251.80959 204.129868,-455.9355867 455.93529,-455.9355867"/>
      <path id="path4201" style="fill:#5b5c63;fill-opacity:1;fill-rule:evenodd;stroke:none;stroke-width:1.06669128" d="m 289.1262,47.054643 c 230.38913,0 417.15942,186.767157 417.15942,417.159717 0,230.38396 -186.77029,417.15535 -417.15942,417.15535 -230.388392,0 -417.15933,-186.77139 -417.15933,-417.15535 0,-230.39256 186.770938,-417.159717 417.15933,-417.159717"/>
    </g>
    <g id="deactivated-center" transform="matrix(0.02211826,0,0,-0.02211835,96.716341,1117.8241)">
      <path id="path4199-2" style="fill:#5b5c63;fill-opacity:1;fill-rule:evenodd;stroke:none;stroke-width:1.06669128" d="m 313.42064,8.2787733 c 251.80634,0 455.93588,204.1259867 455.93588,455.9355767 0,251.80222 -204.12954,455.93171 -455.93588,455.93171 -251.805206,0 -455.93512,-204.12949 -455.93512,-455.93171 0,-251.80959 204.129914,-455.9355767 455.93512,-455.9355767"/>
      <path id="path4201-6" style="fill:#5b5c63;fill-opacity:1;fill-rule:evenodd;stroke:none;stroke-width:1.06669128" d="m 313.42064,47.054653 c 230.38931,0 417.15955,186.767147 417.15955,417.159697 0,230.38396 -186.77024,417.15541 -417.15955,417.15541 -230.388176,0 -417.15916,-186.77145 -417.15916,-417.15541 0,-230.39255 186.770984,-417.159697 417.15916,-417.159697"/>
    </g>
  </g>
</svg>